<?xml version="1.0" encoding="UTF-8" standalone="no"?>
<!-- Created with Inkscape (http://www.inkscape.org/) -->

<svg
   xmlns:dc="http://purl.org/dc/elements/1.1/"
   xmlns:cc="http://creativecommons.org/ns#"
   xmlns:rdf="http://www.w3.org/1999/02/22-rdf-syntax-ns#"
   xmlns:svg="http://www.w3.org/2000/svg"
   xmlns="http://www.w3.org/2000/svg"
   xmlns:sodipodi="http://sodipodi.sourceforge.net/DTD/sodipodi-0.dtd"
   xmlns:inkscape="http://www.inkscape.org/namespaces/inkscape"
   width="27.333487mm"
   height="56mm"
   viewBox="0 0 96.850937 198.4252"
   id="svg2"
   version="1.1"
   inkscape:version="0.91 r13725"
   sodipodi:docname="soporte_vasos.svg">
  <defs
     id="defs4" />
  <sodipodi:namedview
     id="base"
     pagecolor="#ffffff"
     bordercolor="#666666"
     borderopacity="1.0"
     inkscape:pageopacity="0.0"
     inkscape:pageshadow="2"
     inkscape:zoom="1.4325646"
     inkscape:cx="-40.719362"
     inkscape:cy="104.27311"
     inkscape:document-units="px"
     inkscape:current-layer="layer1"
     showgrid="false"
     inkscape:window-width="1280"
     inkscape:window-height="997"
     inkscape:window-x="1271"
     inkscape:window-y="-9"
     inkscape:window-maximized="1"
     fit-margin-top="0"
     fit-margin-left="0"
     fit-margin-right="0"
     fit-margin-bottom="0" />
  <metadata
     id="metadata7">
    <rdf:RDF>
      <cc:Work
         rdf:about="">
        <dc:format>image/svg+xml</dc:format>
        <dc:type
           rdf:resource="http://purl.org/dc/dcmitype/StillImage" />
        <dc:title></dc:title>
      </cc:Work>
    </rdf:RDF>
  </metadata>
  <g
     inkscape:label="Layer 1"
     inkscape:groupmode="layer"
     id="layer1"
     transform="translate(2861.0557,-708.01189)">
    <path
       style="fill:#216778;fill-rule:evenodd;stroke:#000000;stroke-width:0.50018656;stroke-linecap:butt;stroke-linejoin:miter;stroke-miterlimit:4;stroke-dasharray:none;stroke-opacity:1"
       d="m -2846.1083,878.4718 0,-60.52186 c 12.6298,-29.66378 33.6397,-27.64469 39.998,-27.63354 8.4915,0.0149 18.4591,9.59862 25.3206,9.8693 l 15.4052,-48.49719 c 5.8422,-18.39166 -17.3052,-43.42653 -30.5623,-43.42653 l -64.8588,0 0,36.08275 c 0,2.8396 7.619,4.68718 8.8595,2.13286 3.9122,-8.05606 -6.0864,-18.70603 -4.2657,-26.25047 0.6735,-2.7909 2.5432,-6.80868 5.4141,-6.80868 l 6.0705,0 0.4922,9.92591 c 17.0574,-13.62689 37.8569,-13.18838 54.9619,-4.10163 14.2168,7.55243 20.4995,16.4554 14.1096,42.00075 -1.8785,7.50971 -9.0103,24.95496 -16.7346,24.44576 -36.8382,-2.42844 -43.0403,5.96349 -49.2197,11.97678 -4.2016,4.08866 -7.7291,-13.0494 -6.5063,-18.78308 3.255,-15.2619 13.4115,-22.57459 9.4231,-38.17237 -1.3112,-5.12776 -3.6515,-10.55765 -5.6835,-14.79547 l -5.4729,-8.69745 0.02,14.6732 c 0,3.45476 6.1096,12.65088 4.2822,24.7588 -0.7557,5.00621 -6.9786,14.78699 -8.1519,17.71907 l 0,103.9334 c 0,17.81156 -0.2186,27.88488 3.4639,27.88488 3.6825,0 3.635,-9.89531 3.635,-27.71519 z"
       id="path3347-0"
       inkscape:connector-curvature="0"
       sodipodi:nodetypes="scscsscssssccssssssccsscszs" />
  </g>
</svg>
