  0
SECTION
  2
HEADER
  9
$ACADVER
  1
AC1014
  9
$HANDSEED
  5
FFFF
  9
$MEASUREMENT
 70
     1
  0
ENDSEC
  0
SECTION
  2
TABLES
  0
TABLE
  2
VPORT
  5
8
330
0
100
AcDbSymbolTable
 70
     4
  0
VPORT
  5
2E
330
8
100
AcDbSymbolTableRecord
100
AcDbViewportTableRecord
  2
*ACTIVE
 70
     0
 10
0.0
 20
0.0
 11
1.0
 21
1.0
 12
210.0
 22
148.5
 13
0.0
 23
0.0
 14
10.0
 24
10.0
 15
10.0
 25
10.0
 16
0.0
 26
0.0
 36
1.0
 17
0.0
 27
0.0
 37
0.0
 40
341.0
 41
1.24
 42
50.0
 43
0.0
 44
0.0
 50
0.0
 51
0.0
 71
     0
 72
   100
 73
     1
 74
     3
 75
     0
 76
     0
 77
     0
 78
     0
  0
ENDTAB
  0
TABLE
  2
LTYPE
  5
5
330
0
100
AcDbSymbolTable
 70
     1
  0
LTYPE
  5
14
330
5
100
AcDbSymbolTableRecord
100
AcDbLinetypeTableRecord
  2
BYBLOCK
 70
     0
  3

 72
    65
 73
     0
 40
0.0
  0
LTYPE
  5
15
330
5
100
AcDbSymbolTableRecord
100
AcDbLinetypeTableRecord
  2
BYLAYER
 70
     0
  3

 72
    65
 73
     0
 40
0.0
  0
LTYPE
  5
16
330
5
100
AcDbSymbolTableRecord
100
AcDbLinetypeTableRecord
  2
CONTINUOUS
 70
     0
  3
Solid line
 72
    65
 73
     0
 40
0.0
  0
ENDTAB
  0
TABLE
  2
LAYER
  5
2
100
AcDbSymbolTable
 70
2
  0
LAYER
  5
50
100
AcDbSymbolTableRecord
100
AcDbLayerTableRecord
  2
0
 70
0
  6
CONTINUOUS
  0
LAYER
  5
51
100
AcDbSymbolTableRecord
100
AcDbLayerTableRecord
  2
Layer_1
 70
0
  6
CONTINUOUS
  0
ENDTAB
  0
TABLE
  2
STYLE
  5
3
330
0
100
AcDbSymbolTable
 70
     1
  0
STYLE
  5
11
330
3
100
AcDbSymbolTableRecord
100
AcDbTextStyleTableRecord
  2
STANDARD
 70
     0
 40
0.0
 41
1.0
 50
0.0
 71
     0
 42
2.5
  3
txt
  4

  0
ENDTAB
  0
TABLE
  2
VIEW
  5
6
330
0
100
AcDbSymbolTable
 70
     0
  0
ENDTAB
  0
TABLE
  2
UCS
  5
7
330
0
100
AcDbSymbolTable
 70
     0
  0
ENDTAB
  0
TABLE
  2
APPID
  5
9
330
0
100
AcDbSymbolTable
 70
     2
  0
APPID
  5
12
330
9
100
AcDbSymbolTableRecord
100
AcDbRegAppTableRecord
  2
ACAD
 70
     0
  0
ENDTAB
  0
TABLE
  2
DIMSTYLE
  5
A
330
0
100
AcDbSymbolTable
 70
     1
  0
DIMSTYLE
105
27
330
A
100
AcDbSymbolTableRecord
100
AcDbDimStyleTableRecord
  2
ISO-25
 70
     0
  3

  4

  5

  6

  7

 40
1.0
 41
2.5
 42
0.625
 43
3.75
 44
1.25
 45
0.0
 46
0.0
 47
0.0
 48
0.0
140
2.5
141
2.5
142
0.0
143
0.03937007874016
144
1.0
145
0.0
146
1.0
147
0.625
 71
     0
 72
     0
 73
     0
 74
     0
 75
     0
 76
     0
 77
     1
 78
     8
170
     0
171
     3
172
     1
173
     0
174
     0
175
     0
176
     0
177
     0
178
     0
270
     2
271
     2
272
     2
273
     2
274
     3
340
11
275
     0
280
     0
281
     0
282
     0
283
     0
284
     8
285
     0
286
     0
287
     3
288
     0
  0
ENDTAB
  0
TABLE
  2
BLOCK_RECORD
  5
1
330
0
100
AcDbSymbolTable
 70
     1
  0
BLOCK_RECORD
  5
1F
330
1
100
AcDbSymbolTableRecord
100
AcDbBlockTableRecord
  2
*MODEL_SPACE
  0
BLOCK_RECORD
  5
1B
330
1
100
AcDbSymbolTableRecord
100
AcDbBlockTableRecord
  2
*PAPER_SPACE
  0
ENDTAB
  0
ENDSEC
  0
SECTION
  2
BLOCKS
  0
BLOCK
  5
20
330
1F
100
AcDbEntity
  8
0
100
AcDbBlockBegin
  2
*MODEL_SPACE
 70
     0
 10
0.0
 20
0.0
 30
0.0
  3
*MODEL_SPACE
  1

  0
ENDBLK
  5
21
330
1F
100
AcDbEntity
  8
0
100
AcDbBlockEnd
  0
BLOCK
  5
1C
330
1B
100
AcDbEntity
 67
     1
  8
0
100
AcDbBlockBegin
  2
*PAPER_SPACE
  1

  0
ENDBLK
  5
1D
330
1B
100
AcDbEntity
 67
     1
  8
0
100
AcDbBlockEnd
  0
ENDSEC
  0
SECTION
  2
ENTITIES
  0
LWPOLYLINE
  5
100
100
AcDbEntity
  8
Layer_1
 62
7
100
AcDbPolyline
 90
2
 70
1
 10
0.421849
 20
0.789243
 30
0.0
 10
0.421849
 20
2.497304
 30
0.0
  0
SPLINE
  5
101
100
AcDbEntity
  8
Layer_1
 62
7
100
AcDbSpline
 70
0
 71
3
 72
13
 73
9
 74
7
 40
0.000000
 40
0.000000
 40
0.000000
 40
0.000000
 40
0.706366
 40
1.171187
 40
1.464829
 40
1.723427
 40
2.004324
 40
2.235106
 40
2.235106
 40
2.235106
 40
2.235106
 10
0.421849
 20
2.497304
 30
0.0
 10
0.535983
 20
2.712678
 30
0.0
 10
0.725222
 20
3.069778
 30
0.0
 10
1.198467
 20
3.269597
 30
0.0
 10
1.540283
 20
3.294886
 30
0.0
 10
1.812926
 20
3.216494
 30
0.0
 10
2.026460
 20
3.068763
 30
0.0
 10
2.191050
 20
3.020444
 30
0.0
 10
2.265285
 20
2.998650
 30
0.0
 11
0.421849
 21
2.497304
 31
0.0
 11
0.833051
 21
3.071644
 31
0.0
 11
1.257477
 21
3.261172
 31
0.0
 11
1.550681
 21
3.277184
 31
0.0
 11
1.799427
 21
3.206482
 31
0.0
 11
2.047207
 21
3.074164
 31
0.0
 11
2.265285
 21
2.998650
 31
0.0
  0
LWPOLYLINE
  5
102
100
AcDbEntity
  8
Layer_1
 62
7
100
AcDbPolyline
 90
2
 70
1
 10
2.265285
 20
2.998650
 30
0.0
 10
2.700054
 20
4.367349
 30
0.0
  0
SPLINE
  5
103
100
AcDbEntity
  8
Layer_1
 62
7
100
AcDbSpline
 70
0
 71
3
 72
10
 73
6
 74
4
 40
0.000000
 40
0.000000
 40
0.000000
 40
0.000000
 40
0.552538
 40
1.153704
 40
1.625836
 40
1.625836
 40
1.625836
 40
1.625836
 10
2.700054
 20
4.367349
 30
0.0
 10
2.697191
 20
4.555002
 30
0.0
 10
2.691213
 20
4.946822
 30
0.0
 10
2.322704
 20
5.409768
 30
0.0
 10
1.985743
 20
5.536982
 30
0.0
 10
1.837518
 20
5.592942
 30
0.0
 11
2.700054
 21
4.367349
 31
0.0
 11
2.632857
 21
4.915786
 31
0.0
 11
2.264065
 21
5.390541
 31
0.0
 11
1.837518
 21
5.592942
 31
0.0
  0
LWPOLYLINE
  5
104
100
AcDbEntity
  8
Layer_1
 62
7
100
AcDbPolyline
 90
3
 70
1
 10
1.837518
 20
5.592942
 30
0.0
 10
0.007058
 20
5.592942
 30
0.0
 10
0.007058
 20
4.574607
 30
0.0
  0
SPLINE
  5
105
100
AcDbEntity
  8
Layer_1
 62
7
100
AcDbSpline
 70
0
 71
3
 72
16
 73
12
 74
10
 40
0.000000
 40
0.000000
 40
0.000000
 40
0.000000
 40
0.088180
 40
0.204024
 40
0.291397
 40
0.537286
 40
0.812660
 40
1.051121
 40
1.141114
 40
1.232016
 40
1.310389
 40
1.310389
 40
1.310389
 40
1.310389
 10
0.007058
 20
4.574607
 30
0.0
 10
0.023949
 20
4.549626
 30
0.0
 10
0.063028
 20
4.491828
 30
0.0
 10
0.167574
 20
4.468136
 30
0.0
 10
0.321365
 20
4.529206
 30
0.0
 10
0.264353
 20
4.791621
 30
0.0
 10
0.169736
 20
4.996750
 30
0.0
 10
0.112852
 20
5.210372
 30
0.0
 10
0.165005
 20
5.340231
 30
0.0
 10
0.208082
 20
5.421298
 30
0.0
 10
0.263736
 20
5.439150
 30
0.0
 10
0.289504
 20
5.447415
 30
0.0
 11
0.007058
 21
4.574607
 31
0.0
 11
0.064102
 21
4.507363
 31
0.0
 11
0.176709
 21
4.480170
 31
0.0
 11
0.257093
 21
4.514412
 31
0.0
 11
0.263534
 21
4.760217
 31
0.0
 11
0.169616
 21
5.019081
 31
0.0
 11
0.136706
 21
5.255259
 31
0.0
 11
0.166763
 21
5.340084
 31
0.0
 11
0.218103
 21
5.415100
 31
0.0
 11
0.289504
 21
5.447415
 31
0.0
  0
LWPOLYLINE
  5
106
100
AcDbEntity
  8
Layer_1
 62
7
100
AcDbPolyline
 90
3
 70
1
 10
0.289504
 20
5.447415
 30
0.0
 10
0.460827
 20
5.447415
 30
0.0
 10
0.474718
 20
5.167284
 30
0.0
  0
SPLINE
  5
107
100
AcDbEntity
  8
Layer_1
 62
7
100
AcDbSpline
 70
0
 71
3
 72
28
 73
24
 74
22
 40
0.000000
 40
0.000000
 40
0.000000
 40
0.000000
 40
0.570466
 40
1.103758
 40
1.640903
 40
2.043314
 40
2.433473
 40
3.017592
 40
3.310569
 40
3.643811
 40
3.886294
 40
4.669984
 40
5.092950
 40
5.365850
 40
5.484920
 40
5.739569
 40
5.974638
 40
6.371163
 40
6.722342
 40
7.101577
 40
7.254437
 40
7.407466
 40
7.549486
 40
7.549486
 40
7.549486
 40
7.549486
 10
0.474718
 20
5.167284
 30
0.0
 10
0.638259
 20
5.270010
 30
0.0
 10
0.954686
 20
5.468769
 30
0.0
 10
1.526408
 20
5.484569
 30
0.0
 10
1.990099
 20
5.321013
 30
0.0
 10
2.379924
 20
5.073716
 30
0.0
 10
2.540857
 20
4.613982
 30
0.0
 10
2.461562
 20
4.185136
 30
0.0
 10
2.325853
 20
3.810006
 30
0.0
 10
2.203971
 20
3.534077
 30
0.0
 10
1.788386
 20
3.298949
 30
0.0
 10
1.293363
 20
3.433106
 30
0.0
 10
0.782694
 20
3.342799
 30
0.0
 10
0.623148
 20
3.021752
 30
0.0
 10
0.393300
 20
3.136645
 30
0.0
 10
0.389086
 20
3.363491
 30
0.0
 10
0.356424
 20
3.654101
 30
0.0
 10
0.507747
 20
3.961810
 30
0.0
 10
0.676605
 20
4.297330
 30
0.0
 10
0.673478
 20
4.607188
 30
0.0
 10
0.600924
 20
4.823629
 30
0.0
 10
0.546338
 20
4.962742
 30
0.0
 10
0.504667
 20
5.051843
 30
0.0
 10
0.484609
 20
5.094732
 30
0.0
 11
0.474718
 21
5.167284
 31
0.0
 11
0.983545
 21
5.425208
 31
0.0
 11
1.516141
 21
5.452469
 31
0.0
 11
2.025864
 21
5.283041
 31
0.0
 11
2.347502
 21
5.041206
 31
0.0
 11
2.490143
 21
4.678055
 31
0.0
 11
2.424069
 21
4.097687
 31
0.0
 11
2.326505
 21
3.821431
 31
0.0
 11
2.159332
 21
3.533154
 31
0.0
 11
1.951781
 21
3.407773
 31
0.0
 11
1.168332
 21
3.388314
 31
0.0
 11
0.769301
 21
3.248050
 31
0.0
 11
0.562692
 21
3.069762
 31
0.0
 11
0.454716
 21
3.119951
 31
0.0
 11
0.384987
 21
3.364867
 31
0.0
 11
0.379070
 21
3.599862
 31
0.0
 11
0.513859
 21
3.972774
 31
0.0
 11
0.646504
 21
4.297939
 31
0.0
 11
0.645010
 21
4.677171
 31
0.0
 11
0.599722
 21
4.823168
 31
0.0
 11
0.543459
 21
4.965479
 31
0.0
 11
0.484609
 21
5.094732
 31
0.0
  0
LWPOLYLINE
  5
108
100
AcDbEntity
  8
Layer_1
 62
7
100
AcDbPolyline
 90
3
 70
1
 10
0.484609
 20
5.094732
 30
0.0
 10
0.330152
 20
5.340193
 30
0.0
 10
0.330716
 20
4.926083
 30
0.0
  0
SPLINE
  5
109
100
AcDbEntity
  8
Layer_1
 62
7
100
AcDbSpline
 70
0
 71
3
 72
13
 73
9
 74
7
 40
0.000000
 40
0.000000
 40
0.000000
 40
0.000000
 40
0.154595
 40
0.403375
 40
0.714851
 40
0.899539
 40
1.114513
 40
1.266435
 40
1.266435
 40
1.266435
 40
1.266435
 10
0.330716
 20
4.926083
 30
0.0
 10
0.344571
 20
4.876414
 30
0.0
 10
0.380719
 20
4.746816
 30
0.0
 10
0.459629
 20
4.522601
 30
0.0
 10
0.477463
 20
4.264880
 30
0.0
 10
0.389276
 20
4.041834
 30
0.0
 10
0.300006
 20
3.881425
 30
0.0
 10
0.244492
 20
3.772405
 30
0.0
 10
0.221505
 20
3.727263
 30
0.0
 11
0.330716
 21
4.926083
 31
0.0
 11
0.373510
 21
4.777528
 31
0.0
 11
0.443159
 21
4.538697
 31
0.0
 11
0.451570
 21
4.227335
 31
0.0
 11
0.389803
 21
4.053281
 31
0.0
 11
0.291129
 21
3.862292
 31
0.0
 11
0.221505
 21
3.727263
 31
0.0
  0
LWPOLYLINE
  5
10a
100
AcDbEntity
  8
Layer_1
 62
7
100
AcDbPolyline
 90
2
 70
1
 10
0.221505
 20
3.727263
 30
0.0
 10
0.221505
 20
0.794032
 30
0.0
  0
SPLINE
  5
10b
100
AcDbEntity
  8
Layer_1
 62
7
100
AcDbSpline
 70
0
 71
3
 72
13
 73
9
 74
7
 40
0.000000
 40
0.000000
 40
0.000000
 40
0.000000
 40
0.427450
 40
0.695729
 40
0.812523
 40
0.929075
 40
1.195226
 40
1.621547
 40
1.621547
 40
1.621547
 40
1.621547
 10
0.221505
 20
0.794032
 30
0.0
 10
0.226804
 20
0.648027
 30
0.0
 10
0.235428
 20
0.410387
 30
0.0
 10
0.203280
 20
0.165551
 30
0.0
 10
0.318809
 20
-0.040681
 30
0.0
 10
0.437258
 20
0.162729
 30
0.0
 10
0.407301
 20
0.407399
 30
0.0
 10
0.416307
 20
0.643739
 30
0.0
 10
0.421852
 20
0.789243
 30
0.0
 11
0.221505
 21
0.794032
 31
0.0
 11
0.223755
 21
0.366587
 31
0.0
 11
0.247729
 21
0.099381
 31
0.0
 11
0.319264
 21
0.007058
 31
0.0
 11
0.392051
 21
0.098088
 31
0.0
 11
0.418350
 21
0.362936
 31
0.0
 11
0.421852
 21
0.789243
 31
0.0
  0
LWPOLYLINE
  5
10c
100
AcDbEntity
  8
Layer_1
 62
7
100
AcDbPolyline
 90
2
 70
1
 10
0.421852
 20
0.789243
 30
0.0
 10
0.421849
 20
0.789243
 30
0.0
  0
ENDSEC
  0
SECTION
  2
OBJECTS
  0
DICTIONARY
  5
C
330
0
100
AcDbDictionary
  3
ACAD_GROUP
350
D
  3
ACAD_MLINESTYLE
350
17
  0
DICTIONARY
  5
D
330
C
100
AcDbDictionary
  0
DICTIONARY
  5
1A
330
C
100
AcDbDictionary
  0
DICTIONARY
  5
17
330
C
100
AcDbDictionary
  3
STANDARD
350
18
  0
DICTIONARY
  5
19
330
C
100
AcDbDictionary
  0
ENDSEC
  0
EOF
